<svg xmlns="http://www.w3.org/2000/svg" xmlns:xlink="http://www.w3.org/1999/xlink" width="315" height="84" viewBox="0 0 315 84">
    <defs>
        <path id="a" d="M.158.859h194.849v10.515H.158z"/>
    </defs>
    <g fill="none" fill-rule="evenodd">
        <path fill="#1A171B" d="M294.403 22.341c1.692-.02 2.395-.745 2.395-1.873 0-1.213-.792-1.745-2.417-1.745h-1.757v3.64l1.778-.022zm-1.758 4.938h-1.735V17.233h3.646c2.571 0 4 1.17 4 3.13 0 1.467-.77 2.447-2.022 2.936l2.57 3.98h-1.999l-2.285-3.618-2.175.128v3.49zM280.62 23.3v-4.683l-2.637 4.683h2.637zm-4.812 3.98h-1.913l5.692-10.046h7.866v1.49h-5.12v2.767h4.262v1.511h-4.262v2.79h5.12v1.488h-6.834v-2.49h-3.428l-1.384 2.49zm-8.683-4.938c1.691-.02 2.394-.745 2.394-1.873 0-1.213-.79-1.745-2.417-1.745h-1.758v3.64l1.781-.022zm-1.757 4.938h-1.738V17.233h3.649c2.57 0 3.999 1.17 3.999 3.13 0 1.467-.77 2.447-2.023 2.936l2.572 3.98h-2l-2.285-3.618-2.174.128v3.49zm-12.002 0V17.233h6.811v1.49h-5.097v2.767h4.241v1.511h-4.24v2.79h5.097v1.488h-6.811zm-6.508-8.535v8.535h-1.758v-8.535h-3.558v-1.51h8.877v1.51h-3.56zm-10.66 0v8.535h-1.758v-8.535h-3.559v-1.51h8.876v1.51H236.2zm-10.022 8.537h1.736V17.233h-1.736V27.28zm-9.605-.002V17.233h1.736v8.535h4.922v1.511h-6.658zm-7.364-1.213c.812 0 1.56-.19 2.11-.468v-2.107h-2.66V21.98h4.307v4.598c-1.099.64-2.57.937-3.78.937-3.12 0-5.295-1.98-5.295-5.236 0-3.215 2.175-5.28 5.295-5.28 1.253 0 2.681.32 3.582.852l-.57 1.511a5.64 5.64 0 0 0-2.989-.894c-2.154 0-3.604 1.427-3.604 3.748 0 2.383 1.428 3.852 3.604 3.852zm-12.419-7.28l-1.648 4.534h3.296l-1.648-4.534zm4.834 8.493h-1.758l-.923-2.49h-4.328l-.9 2.49h-1.803l3.867-10.046h2.065l3.78 10.046zm-17.866-10.046h6.657v1.511h-4.944v2.916h4.087v1.533h-4.087v4.086h-1.713V17.233zm-14.662 4.704l4.11-4.704h2.131l-4.593 4.938 4.637 5.108h-2.154l-4.13-4.682h-.023v4.682h-1.736V17.233h1.736v4.704h.022zm-6.837 2.64c0-.937-.769-1.257-2.395-1.704-1.472-.383-3.164-1.02-3.164-3 0-1.725 1.407-2.875 3.604-2.875 1.318 0 2.461.3 3.45.873l-.506 1.448c-.879-.533-1.977-.852-2.922-.852-1.34 0-1.912.596-1.912 1.32 0 .915.901 1.235 2.44 1.64 1.515.403 3.097 1.106 3.097 3.021 0 1.79-1.516 3.066-3.8 3.066-1.297 0-2.616-.362-3.626-.937l.461-1.468c.923.553 1.956.957 3.186.957 1.21 0 2.088-.617 2.088-1.49zm-13.01-2.236c1.691-.02 2.394-.745 2.394-1.873 0-1.213-.79-1.745-2.417-1.745h-1.758v3.64l1.78-.022zm-1.759 4.938h-1.736V17.233h3.648c2.57 0 4 1.17 4 3.13 0 1.467-.77 2.447-2.023 2.936l2.571 3.98h-2l-2.285-3.618-2.175.128v3.49zm-10.44-8.833c-2.067 0-3.495 1.511-3.495 3.768 0 2.341 1.428 3.852 3.56 3.852 2.087 0 3.493-1.51 3.493-3.788 0-2.32-1.428-3.832-3.559-3.832zm.042 9.068c-3.054 0-5.273-2-5.273-5.236 0-3.044 2.197-5.28 5.273-5.28 3.033 0 5.274 1.98 5.274 5.216 0 3.066-2.219 5.3-5.274 5.3zm-10.309-10.28h1.67v10.152h-1.868l-5.273-7.706.044 7.6h-1.67V17.232h1.911l5.23 7.6-.043-7.6zM248.53 45.844c.813 0 1.56-.192 2.11-.469v-2.107h-2.66v-1.511h4.308v4.598c-1.1.638-2.57.936-3.78.936-3.12 0-5.295-1.979-5.295-5.236 0-3.214 2.175-5.279 5.296-5.279 1.252 0 2.68.319 3.582.851l-.572 1.511a5.637 5.637 0 0 0-2.988-.893c-2.153 0-3.604 1.426-3.604 3.746 0 2.384 1.428 3.853 3.604 3.853zm-13.496-7.621c-2.066 0-3.493 1.512-3.493 3.768 0 2.341 1.427 3.853 3.56 3.853 2.086 0 3.492-1.512 3.492-3.789 0-2.32-1.426-3.832-3.558-3.832zm.044 9.068c-3.054 0-5.274-2.001-5.274-5.236 0-3.044 2.198-5.279 5.274-5.279 3.032 0 5.273 1.98 5.273 5.215 0 3.065-2.218 5.3-5.273 5.3zm-18.79-4.576h5.404v-1.639h-5.405v1.639zm-7.014-.596c1.693-.022 2.396-.745 2.396-1.874 0-1.213-.79-1.745-2.416-1.745h-1.758v3.64l1.778-.021zm-1.758 4.938h-1.735V37.01h3.647c2.571 0 4 1.171 4 3.129 0 1.469-.77 2.448-2.022 2.937l2.57 3.981h-1.999l-2.285-3.619-2.176.128v3.491zm-12 0V37.01h6.813v1.49h-5.099v2.767h4.24v1.512h-4.24v2.788h5.099v1.49h-6.813zm-6.507-8.536v8.536h-1.757v-8.536h-3.56V37.01h8.877v1.511h-3.56zm-10.66 0v8.536h-1.757v-8.536h-3.56V37.01h8.876v1.511h-3.56zm-11.078.043l-1.648 4.534h3.296l-1.649-4.534zm4.834 8.493h-1.758l-.923-2.49h-4.329l-.9 2.49h-1.803l3.867-10.047h2.067l3.779 10.047zM154.238 37.01h6.656v1.511h-4.944v2.917h4.087v1.532h-4.087v4.087h-1.713V37.01zm-7.916 5.109c1.692-.022 2.395-.745 2.395-1.874 0-1.213-.79-1.745-2.416-1.745h-1.757v3.64l1.779-.021zm-1.757 4.938h-1.736V37.01h3.647c2.571 0 4 1.171 4 3.129 0 1.469-.77 2.448-2.022 2.937l2.571 3.981h-2l-2.285-3.619-2.175.128v3.491zm-10.442-8.834c-2.065 0-3.493 1.512-3.493 3.768 0 2.341 1.428 3.853 3.56 3.853 2.087 0 3.493-1.512 3.493-3.789 0-2.32-1.428-3.832-3.56-3.832zm.044 9.068c-3.054 0-5.273-2.001-5.273-5.236 0-3.044 2.197-5.279 5.273-5.279 3.032 0 5.274 1.98 5.274 5.215 0 3.065-2.22 5.3-5.274 5.3zM119.685 37.01h6.657v1.511H121.4v2.917h4.087v1.532H121.4v4.087h-1.714V37.01z"/>
        <g transform="translate(119 55.675)">
            <mask id="b" fill="#fff">
                <use xlink:href="#a"/>
            </mask>
            <path fill="#1A171B" d="M191.25 9.927c.812 0 1.56-.191 2.11-.468V7.352h-2.66V5.84h4.307v4.598c-1.099.638-2.57.936-3.779.936-3.12 0-5.295-1.98-5.295-5.236 0-3.214 2.174-5.28 5.295-5.28 1.252 0 2.68.32 3.582.853l-.572 1.51a5.629 5.629 0 0 0-2.988-.893c-2.153 0-3.604 1.426-3.604 3.746 0 2.384 1.428 3.853 3.604 3.853zm-10.354-8.833h1.67v10.153h-1.868l-5.273-7.706.044 7.6h-1.67V1.094h1.912l5.23 7.599-.045-7.6zM168.128 11.14h1.736V1.094h-1.736V11.14zm-5.585-10.047h1.67v10.153h-1.868l-5.274-7.706.044 7.6h-1.67V1.094h1.912l5.23 7.599-.044-7.6zM145.181 11.14V1.094h6.811v1.489h-5.097V5.35h4.241v1.51h-4.24v2.79h5.096v1.49h-6.81zm-7.913-4.94c1.691-.02 2.394-.744 2.394-1.872 0-1.214-.79-1.746-2.417-1.746h-1.758v3.64l1.781-.021zm-1.758 4.94h-1.737V1.094h3.648c2.571 0 4 1.17 4 3.129 0 1.469-.77 2.447-2.023 2.937l2.572 3.98h-2l-2.285-3.618-2.175.128v3.49zm-10.442-8.834c-2.065 0-3.494 1.51-3.494 3.767 0 2.342 1.43 3.853 3.56 3.853 2.088 0 3.494-1.511 3.494-3.79 0-2.32-1.429-3.83-3.56-3.83zm.044 9.067c-3.054 0-5.273-2.001-5.273-5.236 0-3.044 2.197-5.28 5.273-5.28 3.033 0 5.274 1.98 5.274 5.216 0 3.066-2.22 5.3-5.274 5.3zM110.63 1.094h6.657v1.51h-4.943v2.917h4.087v1.533h-4.087v4.087h-1.714V1.094zm-7.914 5.108c1.691-.021 2.394-.745 2.394-1.873 0-1.214-.79-1.746-2.417-1.746h-1.757v3.64l1.78-.021zm-1.758 4.939h-1.736V1.094h3.647c2.571 0 4 1.17 4 3.129 0 1.469-.769 2.447-2.022 2.937l2.571 3.98h-2l-2.285-3.618-2.175.128v3.49zm-12 0V1.094h6.811v1.489H90.67V5.35h4.241v1.51h-4.24v2.79h5.097v1.49h-6.812zm-6.508-8.536v8.536h-1.758V2.605h-3.559V1.094h8.877v1.51h-3.56zm-10.66 0v8.536H70.03V2.605h-3.559V1.094h8.877v1.51h-3.56zM57.173 11.14V1.094h6.811v1.489h-5.097V5.35h4.24v1.51h-4.24v2.79h5.097v1.49h-6.81zm-5.08-2.704c0-.937-.769-1.256-2.395-1.702-1.472-.384-3.164-1.023-3.164-3.002 0-1.724 1.406-2.874 3.604-2.874 1.318 0 2.461.298 3.45.873l-.506 1.448c-.879-.532-1.978-.852-2.922-.852-1.34 0-1.912.596-1.912 1.32 0 .915.901 1.234 2.44 1.638 1.515.406 3.097 1.108 3.097 3.024 0 1.788-1.516 3.064-3.8 3.064-1.298 0-2.616-.361-3.627-.936l.462-1.47c.923.555 1.955.959 3.186.959 1.208 0 2.087-.617 2.087-1.49zm-13.01-2.235c1.691-.021 2.394-.745 2.394-1.873 0-1.214-.79-1.746-2.417-1.746h-1.758v3.64l1.78-.021zm-1.759 4.939H35.59V1.094h3.648c2.571 0 4 1.17 4 3.129 0 1.469-.77 2.447-2.023 2.937l2.571 3.98h-1.999l-2.285-3.618-2.176.128v3.49zm-12 0V1.094h6.811v1.489H27.04V5.35h4.24v1.51h-4.24v2.79h5.097v1.49h-6.81zm-6.596 0h-2.087L12.928 1.094h1.824l2.944 8.344 3.033-8.344h1.735L18.73 11.14zM5.387 2.307c-2.065 0-3.493 1.51-3.493 3.767 0 2.342 1.428 3.853 3.56 3.853 2.087 0 3.493-1.511 3.493-3.79 0-2.32-1.428-3.83-3.56-3.83zm.044 9.067c-3.054 0-5.273-2.001-5.273-5.236 0-3.044 2.197-5.28 5.273-5.28 3.032 0 5.274 1.98 5.274 5.216 0 3.066-2.22 5.3-5.274 5.3z" mask="url(#b)"/>
        </g>
        <path fill="#1A171B" d="M95.935 83.675h.679V.692h-.679z"/>
        <g fill="#0077c8">
            <path d="M0 68.673h20.507v-5.777H6.874v-9.078h16.757v-5.832H.001zM50.501 0v20.687h20.507V14.91H57.374V5.832h16.758V0zM24.37 25.033L7.556 0H0v34.387h6.59V9.41l16.985 25.308h7.384zM66.524 72.164c-1.87 3.377-5.229 5.422-9.543 5.422-4.398 0-7.784-2.022-9.675-5.422h-7.528c2.508 7.032 8.956 11.034 17.09 11.034 7.957 0 14.31-4.326 16.93-11.034h-7.274z"/>
        </g>
        <g fill="#99D6EA">
            <path d="M24.37 0v24.947l6.393 9.77h.196V0zM73.799 72.164c.854-2.166 1.323-4.58 1.323-7.181 0-11.278-7.725-17.881-18.178-17.881-10.509 0-18.29 7.483-18.29 18.102 0 2.573.418 4.892 1.164 6.96h7.538c-1.108-1.967-1.715-4.4-1.715-7.181 0-7.317 4.373-12.27 11.134-12.27 6.93 0 11.417 4.953 11.417 12.49 0 2.675-.597 5.036-1.678 6.96h7.285zM50.501 34.367h6.874v-13.68h-6.874zM0 82.278h6.874V68.672H0z"/>
        </g>
    </g>
</svg>
